<?xml version="1.0" standalone="no"?><!DOCTYPE svg PUBLIC "-//W3C//DTD SVG 1.1//EN" "http://www.w3.org/Graphics/SVG/1.1/DTD/svg11.dtd"><svg t="1652684475616" class="icon" viewBox="0 0 1024 1024" version="1.1" xmlns="http://www.w3.org/2000/svg" p-id="4051" xmlns:xlink="http://www.w3.org/1999/xlink" width="18" height="18"><defs><style type="text/css">@font-face { font-family: feedback-iconfont; src: url("//at.alicdn.com/t/font_1031158_u69w8yhxdu.woff2?t=1630033759944") format("woff2"), url("//at.alicdn.com/t/font_1031158_u69w8yhxdu.woff?t=1630033759944") format("woff"), url("//at.alicdn.com/t/font_1031158_u69w8yhxdu.ttf?t=1630033759944") format("truetype"); }
</style></defs><path d="M810.666667 170.666667m0 42.666666l0 0q0 42.666667-42.666667 42.666667l-256 0q-42.666667 0-42.666667-42.666667l0 0q0-42.666667 42.666667-42.666666l256 0q42.666667 0 42.666667 42.666666Z" fill="#516280" p-id="4052"></path><path d="M981.333333 341.333333m0 42.666667l0 0q0 42.666667-42.666666 42.666667l-426.666667 0q-42.666667 0-42.666667-42.666667l0 0q0-42.666667 42.666667-42.666667l426.666667 0q42.666667 0 42.666666 42.666667Z" fill="#007BFC" p-id="4053"></path><path d="M128 213.333333l0 170.666667 170.666667 0 0-170.666667-170.666667 0m0-85.333333l170.666667 0a85.333333 85.333333 0 0 1 85.333333 85.333333l0 170.666667a85.333333 85.333333 0 0 1-85.333333 85.333333l-170.666667 0a85.333333 85.333333 0 0 1-85.333333-85.333333l0-170.666667a85.333333 85.333333 0 0 1 85.333333-85.333333z" fill="#516280" p-id="4054"></path><path d="M810.666667 597.333333m0 42.666667l0 0q0 42.666667-42.666667 42.666667l-256 0q-42.666667 0-42.666667-42.666667l0 0q0-42.666667 42.666667-42.666667l256 0q42.666667 0 42.666667 42.666667Z" fill="#516280" p-id="4055"></path><path d="M981.333333 768m0 42.666667l0 0q0 42.666667-42.666666 42.666666l-426.666667 0q-42.666667 0-42.666667-42.666666l0 0q0-42.666667 42.666667-42.666667l426.666667 0q42.666667 0 42.666666 42.666667Z" fill="#007BFC" p-id="4056"></path><path d="M128 640l0 170.666667 170.666667 0 0-170.666667-170.666667 0m0-85.333333l170.666667 0a85.333333 85.333333 0 0 1 85.333333 85.333333l0 170.666667a85.333333 85.333333 0 0 1-85.333333 85.333333l-170.666667 0a85.333333 85.333333 0 0 1-85.333333-85.333333l0-170.666667a85.333333 85.333333 0 0 1 85.333333-85.333333z" fill="#516280" p-id="4057"></path></svg>