<?xml version="1.0" standalone="no"?><!DOCTYPE svg PUBLIC "-//W3C//DTD SVG 1.1//EN" "http://www.w3.org/Graphics/SVG/1.1/DTD/svg11.dtd"><svg t="1652684407333" class="icon" viewBox="0 0 1024 1024" version="1.1" xmlns="http://www.w3.org/2000/svg" p-id="2979" xmlns:xlink="http://www.w3.org/1999/xlink" width="18" height="18"><defs><style type="text/css">@font-face { font-family: feedback-iconfont; src: url("//at.alicdn.com/t/font_1031158_u69w8yhxdu.woff2?t=1630033759944") format("woff2"), url("//at.alicdn.com/t/font_1031158_u69w8yhxdu.woff?t=1630033759944") format("woff"), url("//at.alicdn.com/t/font_1031158_u69w8yhxdu.ttf?t=1630033759944") format("truetype"); }
</style></defs><path d="M122.065592 200.99371m-51.776224 0a50.597 50.597 0 1 0 103.552447 0 50.597 50.597 0 1 0-103.552447 0Z" p-id="2980"></path><path d="M122.065592 459.888132c-28.593222 0-51.776224 23.171746-51.776224 51.763944 0 28.605501 23.183002 51.774177 51.776224 51.774177 28.593222 0 51.777247-23.167652 51.777247-51.774177C173.841815 483.059877 150.658813 459.888132 122.065592 459.888132z" p-id="2981"></path><path d="M122.065592 770.535241c-28.593222 0-51.776224 23.183002-51.776224 51.776224 0 28.609595 23.183002 51.788503 51.776224 51.788503 28.593222 0 51.777247-23.178909 51.777247-51.788503C173.841815 793.718243 150.658813 770.535241 122.065592 770.535241z" p-id="2982"></path><path d="M251.505639 796.424888l698.980555 0 0 51.776224-698.980555 0 0-51.776224Z" p-id="2983"></path><path d="M251.505639 485.765499l698.980555 0 0 51.7752-698.980555 0 0-51.7752Z" p-id="2984"></path><path d="M251.505639 175.105087l698.980555 0 0 51.777247-698.980555 0 0-51.777247Z" p-id="2985"></path></svg>