<?xml version="1.0" standalone="no"?><!DOCTYPE svg PUBLIC "-//W3C//DTD SVG 1.1//EN" "http://www.w3.org/Graphics/SVG/1.1/DTD/svg11.dtd"><svg t="1652684488898" class="icon" viewBox="0 0 1024 1024" version="1.1" xmlns="http://www.w3.org/2000/svg" p-id="4889" xmlns:xlink="http://www.w3.org/1999/xlink" width="18" height="18"><defs><style type="text/css">@font-face { font-family: feedback-iconfont; src: url("//at.alicdn.com/t/font_1031158_u69w8yhxdu.woff2?t=1630033759944") format("woff2"), url("//at.alicdn.com/t/font_1031158_u69w8yhxdu.woff?t=1630033759944") format("woff"), url("//at.alicdn.com/t/font_1031158_u69w8yhxdu.ttf?t=1630033759944") format("truetype"); }
</style></defs><path d="M853.333333 768c35.413333 0 64-20.650667 64-55.978667V170.581333A63.978667 63.978667 0 0 0 853.333333 106.666667H170.666667C135.253333 106.666667 106.666667 135.253333 106.666667 170.581333v541.44C106.666667 747.285333 135.338667 768 170.666667 768h201.173333l110.016 117.44a42.752 42.752 0 0 0 60.586667 0.042667L651.904 768H853.333333z m-219.029333-42.666667h-6.250667l-115.797333 129.962667c-0.106667 0.106667-116.010667-129.962667-116.010667-129.962667H170.666667c-11.776 0-21.333333-1.621333-21.333334-13.312V170.581333A21.205333 21.205333 0 0 1 170.666667 149.333333h682.666666c11.776 0 21.333333 9.536 21.333334 21.248v541.44c0 11.754667-9.472 13.312-21.333334 13.312H634.304zM341.333333 490.666667a42.666667 42.666667 0 1 0 0-85.333334 42.666667 42.666667 0 0 0 0 85.333334z m170.666667 0a42.666667 42.666667 0 1 0 0-85.333334 42.666667 42.666667 0 0 0 0 85.333334z m170.666667 0a42.666667 42.666667 0 1 0 0-85.333334 42.666667 42.666667 0 0 0 0 85.333334z" fill="#3D3D3D" p-id="4890"></path></svg>